Coordinates
version=1
nRows=38
nColumns=12
inDegrees=yes

Units are S.I. units (second, meters, Newtons, ...)
Angles are in degrees

endheader
time	SC_y	SC_z	SC_x	AC_y	AC_z	AC_x	GH_y	GH_z	GH_yy	EL_x	PS_y
       0.0              -41.58         -4.481          29.58          62.58         -9.008         -15.09         -117.6          84.05          138.3          63.16          51.19
   0.03206              -41.58         -4.476          29.59          62.58         -9.008         -15.09         -117.6          84.05          138.3          63.16          51.18
   0.06412              -41.58         -4.471          29.59          62.59         -9.009         -15.08         -117.6          84.04          138.3          63.17          51.18
   0.09618              -41.58         -4.466           29.6          62.59          -9.01         -15.08         -117.6          84.03          138.2          63.18          51.17
    0.1282              -41.58          -4.46          29.61          62.59         -9.011         -15.07         -117.5          84.02          138.2          63.18          51.17
    0.1603              -41.58         -4.454          29.62          62.59         -9.012         -15.07         -117.5          84.01          138.1          63.19          51.16
    0.1924              -41.58         -4.448          29.62          62.59         -9.013         -15.06         -117.5           84.0          138.1           63.2          51.16
    0.2244              -41.58         -4.441          29.63          62.59         -9.014         -15.05         -117.5          83.99          138.0          63.21          51.15
    0.2565              -41.58         -4.434          29.64          62.59         -9.015         -15.05         -117.5          83.98          138.0          63.22          51.15
    0.2885              -41.58         -4.426          29.66          62.59         -9.016         -15.04         -117.5          83.96          137.9          63.23          51.14
    0.3206              -41.58         -4.417          29.67          62.59         -9.018         -15.03         -117.5          83.95          137.9          63.24          51.13
    0.3526              -41.58         -4.408          29.68          62.59         -9.019         -15.02         -117.5          83.93          137.8          63.25          51.12
    0.3847              -41.58         -4.399          29.69           62.6         -9.021         -15.01         -117.5          83.92          137.7          63.27          51.12
    0.4168              -41.58         -4.388          29.71           62.6         -9.022          -15.0         -117.4           83.9          137.7          63.28          51.11
    0.4488              -41.58         -4.377          29.72           62.6         -9.024         -14.99         -117.4          83.88          137.6           63.3           51.1
    0.4809              -41.58         -4.364          29.74           62.6         -9.026         -14.97         -117.4          83.86          137.5          63.31          51.09
    0.5129              -41.58         -4.351          29.76           62.6         -9.028         -14.96         -117.4          83.84          137.4          63.33          51.07
     0.545              -41.58         -4.336          29.78           62.6         -9.031         -14.95         -117.4          83.81          137.3          63.35          51.06
    0.5771              -41.58          -4.32           29.8          62.61         -9.033         -14.93         -117.3          83.78          137.2          63.37          51.05
    0.6091              -41.58         -4.303          29.83          62.61         -9.036         -14.91         -117.3          83.75          137.1          63.39          51.03
    0.6412              -41.58         -4.283          29.85          62.61         -9.039         -14.89         -117.3          83.72          136.9          63.42          51.02
    0.6732              -41.58         -4.262          29.88          62.61         -9.042         -14.87         -117.2          83.69          136.8          63.45           51.0
    0.7053              -41.58         -4.239          29.92          62.62         -9.046         -14.85         -117.2          83.65          136.6          63.48          50.98
    0.7373              -41.58         -4.213          29.95          62.62          -9.05         -14.82         -117.2           83.6          136.4          63.51          50.95
    0.7694              -41.58         -4.184          29.99          62.62         -9.055         -14.79         -117.1          83.56          136.2          63.55          50.93
    0.8015              -41.58         -4.152          30.04          62.63          -9.06         -14.76         -117.1           83.5          136.0           63.6           50.9
    0.8335              -41.58         -4.116          30.09          62.63         -9.065         -14.72         -117.0          83.44          135.7          63.64          50.87
    0.8656              -41.58         -4.075          30.14          62.64         -9.072         -14.68         -117.0          83.37          135.4           63.7          50.83
    0.8976              -41.58         -4.029          30.21          62.64         -9.079         -14.63         -116.9           83.3          135.1          63.76          50.79
    0.9297              -41.58         -3.977          30.28          62.65         -9.087         -14.58         -116.8          83.21          134.7          63.83          50.75
    0.9618              -41.57         -3.918          30.36          62.66         -9.097         -14.52         -116.7          83.11          134.3          63.91           50.7
    0.9938              -41.57          -3.85          30.46          62.67         -9.107         -14.45         -116.6           83.0          133.8           64.0          50.64
     1.026              -41.57         -3.771          30.56          62.68          -9.12         -14.37         -116.5          82.86          133.3          64.11          50.57
     1.058              -41.57          -3.68          30.69          62.69         -9.134         -14.27         -116.4          82.71          132.6          64.23          50.49
      1.09              -41.57         -3.573          30.84           62.7         -9.151         -14.16         -116.2          82.53          131.8          64.37          50.39
     1.122              -41.57         -3.447          31.01          62.72         -9.171         -14.03         -116.0          82.32          130.9          64.54          50.28
     1.154              -41.56         -3.297          31.22          62.74         -9.195         -13.88         -115.8          82.07          129.9          64.74          50.15
     1.186              -41.56         -3.117          31.47          62.76         -9.223         -13.69         -115.5          81.77          128.6          64.98           50.0
